<svg width="30" height="30" viewBox="0 0 30 30" xmlns="http://www.w3.org/2000/svg">
<path d="M15 0C12.0333 0 9.13319 0.879735 6.66645 2.52796C4.19972 4.17618 2.27713 6.51886 1.14181 9.25975C0.00649929 12.0006 -0.290551 15.0166 0.288227 17.9264C0.867006 20.8361 2.29562 23.5088 4.3934 25.6066C6.49119 27.7044 9.16394 29.133 12.0737 29.7118C14.9834 30.2906 17.9994 29.9935 20.7403 28.8582C23.4811 27.7229 25.8238 25.8003 27.472 23.3336C29.1203 20.8668 30 17.9667 30 15C30 11.0218 28.4197 7.20644 25.6066 4.3934C22.7936 1.58035 18.9783 0 15 0V0ZM20.91 17.1921H17.1257V20.9743C17.1257 21.5381 16.9018 22.0787 16.5031 22.4774C16.1045 22.876 15.5638 23.1 15 23.1C14.4362 23.1 13.8955 22.876 13.4969 22.4774C13.0983 22.0787 12.8743 21.5381 12.8743 20.9743V17.1921H9.09001C8.53763 17.1746 8.01375 16.9429 7.62922 16.5459C7.24468 16.149 7.02967 15.618 7.02967 15.0654C7.02967 14.5127 7.24468 13.9817 7.62922 13.5848C8.01375 13.1879 8.53763 12.9561 9.09001 12.9386H12.8743V9.15643C12.8743 8.59265 13.0983 8.05197 13.4969 7.65332C13.8955 7.25467 14.4362 7.03071 15 7.03071C15.5638 7.03071 16.1045 7.25467 16.5031 7.65332C16.9018 8.05197 17.1257 8.59265 17.1257 9.15643V12.9386H20.91C21.4624 12.9561 21.9863 13.1879 22.3708 13.5848C22.7553 13.9817 22.9703 14.5127 22.9703 15.0654C22.9703 15.618 22.7553 16.149 22.3708 16.5459C21.9863 16.9429 21.4624 17.1746 20.91 17.1921Z"/>
</svg>
